<svg xmlns="http://www.w3.org/2000/svg" viewBox="0 0 122.25 25.01"><defs><style>.cls-1{fill:#00976d;}</style></defs><title>Recurso 14</title><g id="Capa_2" data-name="Capa 2"><g id="Capa_1-2" data-name="Capa 1"><path class="cls-1" d="M25,12.52v9.93A2.33,2.33,0,0,1,22.42,25H2.58A2.34,2.34,0,0,1,0,22.44V2.54A2.34,2.34,0,0,1,2.55,0H22.46A2.33,2.33,0,0,1,25,2.54ZM9.68,22.08H14V12.43h2.94V8.86H14c0-.53,0-1,0-1.45,0-.66.26-.88.93-.89h2L17.33,3c-1.62,0-3.16-.09-4.7-.06A2.84,2.84,0,0,0,9.69,5.86c0,.63,0,1.25,0,1.88V9H7.76v3.49H9.68Z"/><path class="cls-1" d="M45.87,22.24A13.13,13.13,0,0,0,55,19.56a6.39,6.39,0,0,1-4.55-2.11,5.79,5.79,0,0,1-1.3-2.28,6.81,6.81,0,0,0,2.73-.09,6.48,6.48,0,0,1-5-6.29,6.73,6.73,0,0,0,2.85.77,6.35,6.35,0,0,1-2.61-3.85,6.22,6.22,0,0,1,.7-4.54,18,18,0,0,0,13,6.58c0-.14,0-.24,0-.34a6.29,6.29,0,0,1,10-6.1,1.4,1.4,0,0,1,.33.26.87.87,0,0,0,1.1.28,14.57,14.57,0,0,0,3-1.19,3.47,3.47,0,0,1,.34-.17A6.47,6.47,0,0,1,73,3.88a13.36,13.36,0,0,0,3.37-.81,7,7,0,0,1-.66.86c-.71.72-1.46,1.42-2.18,2.13a.68.68,0,0,0-.21.43,18.47,18.47,0,0,1-3.5,11.24A16.69,16.69,0,0,1,62,23.82a18.3,18.3,0,0,1-11.26.55,17.34,17.34,0,0,1-4.56-1.95Z"/><path class="cls-1" d="M109.74,0c1.88,0,3.76-.06,5.64,0A7.13,7.13,0,0,1,122.2,7c.07,3.67.07,7.36,0,11a7,7,0,0,1-6.69,6.9c-4,.19-8,.16-11.92,0a7,7,0,0,1-6.32-6.93q0-5.46,0-10.92A7.15,7.15,0,0,1,104,0c1.92-.08,3.84,0,5.76,0Zm0,22.6h0c1.84,0,3.68,0,5.52,0a4.82,4.82,0,0,0,4.6-4.38c.09-1,.1-2,.1-3,0-2.77,0-5.54-.1-8.31a4.8,4.8,0,0,0-5-4.57q-5.13,0-10.27,0a4.91,4.91,0,0,0-5,4.87c-.06,3.53,0,7.05,0,10.57a4.87,4.87,0,0,0,4.84,4.85C106.18,22.65,108,22.62,109.71,22.62Z"/><path class="cls-1" d="M103.3,12.47a6.44,6.44,0,1,1,6.43,6.46A6.44,6.44,0,0,1,103.3,12.47Zm6.45-4.11a4.12,4.12,0,1,0,4.12,4.12A4.14,4.14,0,0,0,109.75,8.36Z"/><path class="cls-1" d="M116.21,7.33A1.39,1.39,0,0,1,114.8,5.9a1.45,1.45,0,0,1,1.42-1.46,1.52,1.52,0,0,1,1.47,1.49A1.44,1.44,0,0,1,116.21,7.33Z"/></g></g></svg>